<?xml version="1.0" standalone="no"?>
<!DOCTYPE svg PUBLIC "-//W3C//DTD SVG 20010904//EN"
 "http://www.w3.org/TR/2001/REC-SVG-20010904/DTD/svg10.dtd">
<svg version="1.0" xmlns="http://www.w3.org/2000/svg"
 width="676.000000pt" height="676.000000pt" viewBox="0 0 676.000000 676.000000"
 preserveAspectRatio="xMidYMid meet">
<metadata>
Created by potrace 1.14, written by Peter Selinger 2001-2017
</metadata>
<g transform="translate(0.000000,676.000000) scale(0.100000,-0.100000)"
fill="#000000" stroke="none">
<path d="M3220 5479 c-805 -55 -1518 -611 -1774 -1384 -75 -226 -118 -540
-102 -747 l8 -98 2018 0 2018 0 6 31 c11 58 6 307 -9 426 -56 437 -244 833
-545 1147 -424 443 -1006 667 -1620 625z m398 -230 c342 -37 650 -146 922
-327 157 -104 357 -303 459 -456 85 -128 145 -244 195 -379 77 -206 139 -551
110 -608 -17 -34 -39 -42 -72 -26 -24 11 -28 19 -33 78 -4 46 -12 76 -29 99
-22 32 -24 32 -78 26 -122 -14 -296 -104 -408 -210 -37 -37 -74 -66 -81 -66
-39 0 17 81 96 141 113 84 231 144 355 179 83 23 88 45 10 37 -363 -37 -501
-70 -787 -192 -174 -73 -315 -111 -467 -124 -99 -8 -274 0 -312 14 -12 5 -30
-3 -55 -25 -20 -18 -75 -51 -122 -74 l-86 -41 -120 1 -120 1 -205 75 c-274
101 -319 112 -460 112 -132 0 -204 -16 -323 -71 -76 -35 -95 -38 -84 -10 8 21
154 93 222 110 146 37 258 30 420 -25 66 -23 98 -29 105 -22 21 21 -222 129
-405 179 -236 65 -453 -5 -621 -200 -63 -72 -102 -88 -70 -28 65 121 227 241
391 288 91 27 213 17 346 -28 124 -41 316 -135 483 -236 151 -91 214 -113 331
-115 107 -1 165 17 215 69 l35 36 8 147 c4 81 12 181 18 222 8 61 7 84 -5 125
-26 85 -28 82 61 115 23 9 47 34 83 87 l51 76 -45 -5 c-43 -5 -46 -4 -46 18 0
31 -5 30 -47 -6 -18 -16 -37 -30 -41 -30 -5 0 -13 15 -20 34 -16 43 -48 74
-63 59 -6 -6 -21 -32 -33 -57 l-23 -47 -27 36 c-29 38 -46 38 -46 1 0 -32 -5
-34 -50 -23 -22 6 -43 8 -47 4 -4 -4 12 -27 34 -50 23 -23 55 -57 72 -74 18
-20 39 -33 54 -33 43 0 51 -21 38 -103 -11 -61 -10 -81 3 -132 9 -33 13 -73
10 -90 -3 -17 2 -61 10 -98 23 -97 21 -121 -14 -160 -40 -46 -79 -61 -141 -55
-69 7 -83 24 -89 106 -6 83 -28 92 -49 21 l-14 -47 -106 85 c-219 174 -461
253 -745 240 -281 -12 -508 -133 -608 -323 -40 -76 -50 -88 -85 -98 -22 -7
-23 -6 -23 68 0 173 51 434 125 631 218 588 749 1018 1413 1145 203 39 441 50
630 29z m-259 -1026 c10 -19 9 -22 -5 -16 -13 5 -15 1 -12 -23 3 -16 3 -23 1
-16 -9 25 -25 11 -21 -17 2 -17 1 -28 -4 -25 -13 8 -9 51 9 89 9 19 17 34 18
32 1 -1 8 -12 14 -24z m18 -70 c-3 -10 -5 -4 -5 12 0 17 2 24 5 18 2 -7 2 -21
0 -30z m73 -37 c-6 -19 -26 -46 -45 -61 -52 -39 -57 -54 -39 -121 11 -41 14
-76 8 -114 -3 -30 -10 -93 -14 -140 -3 -47 -7 -83 -8 -80 -8 19 -26 253 -26
335 l-1 99 -32 21 c-34 21 -66 75 -61 102 5 25 70 -36 93 -86 20 -45 29 -45
40 -4 8 36 89 120 93 98 2 -8 -2 -31 -8 -49z m60 29 c0 -8 -14 -29 -31 -47
l-30 -33 17 35 c26 56 44 74 44 45z m-279 -57 c5 -10 8 -18 5 -18 -9 0 -66 65
-66 74 0 12 49 -33 61 -56z"/>
<path d="M3098 4838 c-9 -7 -28 -38 -42 -69 -30 -64 -114 -161 -186 -214 -32
-23 -57 -52 -68 -78 -27 -59 -69 -107 -96 -107 -31 0 -86 -38 -113 -79 -12
-18 -37 -41 -55 -50 -18 -9 -42 -30 -53 -48 -11 -18 -27 -32 -35 -33 -8 0 -35
-6 -60 -14 -166 -54 -259 -81 -370 -105 -55 -12 -108 -32 -150 -56 -174 -102
-293 -196 -288 -229 5 -34 43 -32 90 7 141 113 284 192 383 211 44 9 98 22
120 30 22 8 52 15 66 16 14 0 34 7 45 15 10 8 39 15 62 15 28 0 53 7 69 20 14
11 41 20 59 20 29 0 36 5 54 40 13 25 29 42 45 46 14 3 38 23 55 43 54 66 59
70 87 77 53 11 74 28 111 88 20 32 83 104 139 160 57 56 119 128 138 160 l35
60 45 -48 c28 -30 49 -64 55 -90 27 -106 61 -140 185 -181 134 -45 183 -77
240 -156 33 -46 38 -49 68 -44 25 5 42 -1 79 -24 34 -22 73 -35 137 -46 97
-17 126 -14 233 25 72 25 123 25 173 0 33 -17 41 -18 54 -6 12 11 45 13 136
11 120 -3 121 -4 175 -40 30 -20 64 -45 75 -55 11 -11 40 -26 65 -35 24 -9 65
-29 91 -45 29 -19 53 -28 63 -24 15 6 14 10 -11 36 -15 17 -53 46 -83 65 -30
20 -61 44 -68 54 -7 11 -28 26 -45 35 -18 9 -56 34 -84 56 -51 39 -55 40 -95
30 -41 -9 -182 -7 -333 5 -60 4 -83 1 -149 -22 -66 -23 -91 -26 -160 -23 -72
3 -86 7 -126 36 -25 18 -63 35 -85 39 -31 5 -50 17 -83 54 -59 66 -121 105
-216 134 -102 31 -144 56 -152 92 -22 98 -26 106 -99 179 -74 74 -97 85 -127
62z"/>
<path d="M4966 3979 c-33 -11 -127 -30 -208 -44 -82 -14 -184 -36 -226 -50
-104 -35 -298 -131 -402 -200 -210 -139 -369 -188 -540 -167 -63 8 -78 7 -92
-6 -10 -8 -18 -21 -18 -27 0 -21 30 -27 180 -32 134 -5 153 -4 245 20 125 33
350 109 520 175 185 72 283 95 485 112 223 19 222 19 215 48 -9 38 -84 192
-93 191 -4 -1 -34 -10 -66 -20z"/>
<path d="M2138 2975 c-8 -30 -13 -57 -10 -60 3 -3 20 11 38 30 32 35 35 36 96
33 l63 -3 0 -203 c0 -218 -1 -221 -52 -222 -13 0 -23 -4 -23 -10 0 -6 42 -10
106 -10 67 0 103 4 99 10 -3 6 -14 10 -24 10 -38 0 -41 17 -41 227 l0 203 61
0 c71 0 94 -10 103 -45 10 -41 23 -29 30 31 7 61 3 75 -16 56 -15 -15 -384
-17 -393 -2 -13 20 -22 9 -37 -45z"/>
<path d="M1163 3006 c-38 -17 -73 -69 -73 -109 0 -53 43 -109 120 -155 60 -35
85 -68 85 -113 0 -53 -30 -82 -84 -82 -50 0 -87 23 -108 68 -9 19 -22 35 -28
35 -17 0 -2 -87 18 -107 18 -18 119 -30 161 -19 68 17 115 98 96 166 -12 43
-42 74 -110 118 -70 44 -90 68 -90 113 0 51 25 71 86 67 43 -3 51 -7 72 -38
34 -51 46 -51 38 1 -4 24 -11 48 -17 54 -16 16 -131 17 -166 1z"/>
<path d="M2780 3007 c-9 -7 -31 -52 -49 -102 -118 -317 -131 -346 -162 -352
-54 -11 -29 -23 46 -23 43 0 75 4 75 10 0 6 -9 10 -20 10 -26 0 -26 20 1 98
l21 62 77 0 77 0 23 -70 c23 -74 22 -90 -10 -90 -10 0 -19 -4 -19 -10 0 -6 37
-10 90 -10 53 0 90 4 90 10 0 6 -9 10 -19 10 -32 0 -47 32 -122 257 -39 117
-74 213 -77 213 -4 0 -14 -6 -22 -13z m45 -236 c6 -20 3 -21 -54 -21 -34 0
-61 2 -61 5 0 2 10 30 21 62 45 120 39 116 64 41 13 -36 26 -76 30 -87z"/>
<path d="M4416 3005 c-60 -23 -99 -57 -131 -116 -25 -46 -30 -65 -30 -124 1
-84 24 -135 85 -187 48 -42 98 -58 176 -58 142 1 244 105 244 250 0 104 -43
180 -125 223 -52 26 -165 33 -219 12z m164 -30 c69 -35 118 -158 105 -258 -27
-198 -234 -237 -328 -62 -18 32 -22 57 -22 130 0 78 3 95 24 129 13 21 38 47
55 57 38 23 125 25 166 4z"/>
<path d="M5557 3003 c-62 -21 -130 -82 -152 -135 -23 -58 -23 -153 -1 -198 25
-49 74 -98 121 -122 51 -27 156 -35 247 -18 58 10 68 15 63 29 -24 61 -16 136
15 144 11 3 20 10 20 16 0 7 -33 11 -95 11 -78 0 -95 -3 -95 -15 0 -9 9 -15
24 -15 49 0 56 -8 56 -70 0 -73 -13 -85 -92 -83 -127 3 -202 89 -203 232 0 90
20 139 73 179 29 22 48 27 107 30 87 5 125 -11 149 -63 25 -52 39 -45 31 18
-4 28 -11 56 -15 60 -4 5 -52 11 -106 13 -75 3 -111 0 -147 -13z"/>
<path d="M440 3002 c0 -4 14 -13 30 -19 l30 -11 0 -199 c0 -206 -3 -223 -42
-223 -10 0 -18 -4 -18 -10 0 -6 38 -10 95 -10 57 0 95 4 95 10 0 6 -11 10 -25
10 -35 0 -46 35 -43 129 l3 76 34 3 c60 6 101 -7 111 -34 18 -46 30 -25 30 51
0 79 -11 96 -29 45 -10 -31 -11 -31 -78 -28 l-68 3 -3 93 -3 92 74 0 c77 0
107 -15 107 -53 0 -9 7 -17 15 -17 11 0 15 12 15 50 l0 50 -165 0 c-91 0 -165
-4 -165 -8z"/>
<path d="M820 3001 c0 -5 13 -11 29 -14 37 -8 41 -29 41 -217 0 -188 -4 -209
-41 -217 -59 -11 -26 -23 66 -23 57 0 95 4 95 10 0 6 -8 10 -18 10 -39 0 -42
17 -42 220 0 203 3 220 42 220 10 0 18 5 18 10 0 6 -38 10 -95 10 -52 0 -95
-4 -95 -9z"/>
<path d="M1420 3000 c0 -5 9 -10 20 -10 10 0 24 -9 30 -19 15 -30 13 -387 -2
-401 -7 -6 -22 -17 -33 -25 -18 -13 -10 -14 78 -15 58 0 97 4 97 10 0 6 -9 10
-19 10 -40 0 -51 26 -51 121 l0 90 138 -3 137 -3 3 -75 c4 -95 -2 -118 -33
-126 -52 -13 -22 -24 65 -24 53 0 90 4 90 10 0 6 -8 10 -18 10 -39 0 -42 17
-42 220 0 203 3 220 42 220 10 0 18 5 18 10 0 6 -37 10 -90 10 -86 0 -117 -11
-66 -24 29 -7 36 -30 36 -118 l0 -68 -140 0 -140 0 0 79 c0 81 12 111 46 111
8 0 14 5 14 10 0 6 -37 10 -90 10 -53 0 -90 -4 -90 -10z"/>
<path d="M3030 3001 c0 -5 13 -11 29 -14 18 -4 31 -14 35 -29 7 -29 8 -346 0
-375 -3 -12 -19 -26 -35 -32 -16 -5 -29 -12 -29 -15 0 -4 43 -6 95 -6 57 0 95
4 95 10 0 6 -8 10 -18 10 -39 0 -42 17 -42 220 0 203 3 220 42 220 10 0 18 5
18 10 0 6 -38 10 -95 10 -52 0 -95 -4 -95 -9z"/>
<path d="M3270 3000 c0 -5 9 -10 19 -10 46 0 51 -19 51 -216 0 -109 -4 -193
-10 -205 -6 -11 -21 -19 -35 -19 -14 0 -25 -5 -25 -10 0 -7 61 -10 177 -8
l177 3 13 45 c17 58 3 70 -28 23 -24 -38 -24 -38 -99 -41 -41 -1 -82 2 -90 8
-12 7 -16 42 -18 186 -2 98 -1 188 2 201 4 13 16 25 31 29 53 13 21 24 -70 24
-57 0 -95 -4 -95 -10z"/>
<path d="M3850 3000 c0 -5 8 -10 18 -10 39 0 42 -17 42 -227 l0 -203 -30 -6
c-72 -15 -17 -24 145 -24 l174 0 11 41 c18 66 8 80 -23 32 l-27 -43 -78 0
c-47 0 -83 5 -90 12 -8 8 -12 68 -12 203 0 198 3 215 42 215 10 0 18 5 18 10
0 6 -38 10 -95 10 -57 0 -95 -4 -95 -10z"/>
<path d="M4835 3000 c-3 -6 5 -14 19 -20 l26 -10 0 -198 c0 -205 -3 -222 -42
-222 -10 0 -18 -4 -18 -8 0 -14 229 -23 288 -12 138 26 213 112 213 245 0 108
-60 189 -163 220 -60 17 -313 22 -323 5z m293 -36 c55 -22 91 -62 107 -118 18
-59 18 -79 4 -147 -14 -63 -65 -124 -117 -139 -71 -19 -142 -9 -164 24 -4 6
-8 98 -8 204 l0 192 70 0 c41 0 86 -6 108 -16z"/>
<path d="M5920 3002 c0 -4 14 -13 30 -19 l30 -11 0 -199 c0 -211 -3 -223 -47
-223 -13 0 -23 -4 -23 -10 0 -6 68 -10 185 -10 l184 0 14 48 c17 57 11 74 -15
41 -48 -61 -44 -59 -126 -59 -47 0 -83 5 -90 12 -8 8 -12 45 -12 100 l0 88 61
0 c58 0 61 -1 72 -30 19 -50 27 -34 27 50 0 44 -2 80 -6 80 -3 0 -10 -13 -15
-29 -11 -32 -32 -41 -96 -41 l-43 0 0 85 c0 47 -1 88 -2 93 -2 4 30 8 70 10
79 3 97 -4 113 -45 20 -52 39 -6 23 55 -6 22 -9 22 -170 22 -90 0 -164 -4
-164 -8z"/>
<path d="M1900 2310 c0 -5 7 -10 15 -10 12 0 15 -19 15 -115 0 -70 -4 -115
-10 -115 -5 0 -10 -4 -10 -10 0 -15 106 -12 145 4 60 25 72 79 27 118 -26 22
-26 24 -10 41 25 24 22 52 -8 76 -21 17 -41 21 -95 21 -39 0 -69 -4 -69 -10z
m138 -22 c7 -7 12 -21 12 -33 0 -29 -19 -45 -52 -45 -27 0 -28 2 -28 45 0 43
1 45 28 45 15 0 33 -5 40 -12z m6 -119 c14 -11 26 -30 26 -41 0 -45 -58 -76
-88 -46 -13 13 -17 90 -5 101 12 13 40 7 67 -14z"/>
<path d="M2120 2310 c0 -5 6 -10 14 -10 7 0 30 -31 50 -69 43 -81 50 -149 16
-158 -11 -3 -17 -9 -14 -14 7 -12 104 -11 104 1 0 6 -7 10 -15 10 -11 0 -15
12 -15 52 0 40 8 65 35 115 20 34 43 63 50 63 8 0 15 5 15 10 0 6 -19 10 -41
10 -35 0 -40 -2 -29 -15 9 -11 6 -24 -16 -65 l-28 -51 -27 53 c-19 38 -24 57
-17 66 8 9 0 12 -36 12 -25 0 -46 -4 -46 -10z"/>
<path d="M2544 2303 c-32 -98 -80 -211 -95 -225 -27 -23 -24 -28 21 -28 38 0
55 13 28 22 -9 3 -8 14 3 44 13 35 19 39 52 42 39 3 40 2 61 -65 6 -17 3 -23
-9 -23 -9 0 -14 -4 -10 -10 7 -11 182 -12 190 -1 2 5 -4 11 -15 14 -18 5 -20
14 -20 96 l0 92 92 -106 c51 -58 95 -105 98 -105 3 0 5 54 5 120 0 107 2 121
20 134 19 14 16 15 -33 16 -33 0 -51 -4 -47 -10 3 -5 13 -10 21 -10 11 0 14
-18 14 -87 l-1 -88 -59 65 c-33 36 -70 80 -82 97 -18 26 -30 33 -57 33 l-35 0
22 -20 c19 -18 22 -31 22 -103 0 -106 -6 -127 -35 -127 -32 0 -38 10 -81 137
-37 108 -57 135 -70 96z m35 -110 c1 -8 -11 -13 -28 -13 l-30 0 16 47 16 47
13 -34 c7 -19 13 -41 13 -47z"/>
<path d="M3008 2303 c20 -14 22 -23 22 -120 0 -83 -3 -105 -15 -109 -30 -12
-14 -24 30 -24 25 0 45 5 45 10 0 6 -7 10 -15 10 -20 0 -27 32 -23 118 l3 73
90 -105 c50 -58 93 -105 98 -105 4 -1 7 54 7 120 0 104 3 124 18 135 15 12 11
13 -32 14 l-50 0 22 -20 c19 -18 22 -31 22 -96 0 -42 -4 -74 -8 -72 -10 4
-115 120 -145 161 -16 21 -29 27 -56 26 -36 0 -36 0 -13 -16z"/>
<path d="M3395 2308 c-30 -96 -80 -217 -95 -230 -28 -23 -25 -28 20 -28 38 0
55 13 28 22 -9 3 -8 14 3 44 13 35 19 39 52 42 39 3 40 2 61 -65 6 -17 3 -23
-9 -23 -9 0 -14 -4 -10 -10 7 -12 205 -12 205 0 0 6 -7 10 -15 10 -19 0 -27
47 -23 145 3 75 4 80 26 83 32 5 52 -15 52 -52 0 -36 -7 -48 -35 -64 -18 -10
-18 -11 -2 -12 33 0 77 29 78 53 2 40 -2 52 -27 75 -21 18 -37 22 -90 22 -60
0 -83 -11 -49 -24 13 -5 15 -24 13 -113 -3 -108 -3 -108 -29 -111 -14 -2 -30
3 -36 10 -6 7 -28 64 -49 125 -36 103 -58 135 -69 101z m34 -115 c1 -8 -11
-13 -29 -13 l-29 0 17 45 17 46 12 -33 c6 -18 12 -39 12 -45z"/>
<path d="M3768 2304 c20 -14 22 -24 22 -104 0 -48 3 -96 6 -105 9 -22 56 -45
93 -45 82 0 111 43 111 166 0 61 4 79 18 90 15 12 11 13 -32 14 l-50 0 22 -20
c18 -17 22 -32 22 -86 0 -113 -39 -162 -109 -138 -34 12 -50 59 -50 146 -1 58
2 69 21 82 21 15 20 16 -37 16 -57 0 -58 -1 -37 -16z"/>
<path d="M4050 2311 c0 -5 7 -11 15 -15 12 -4 15 -26 15 -111 0 -85 -3 -107
-15 -111 -8 -4 -15 -10 -15 -15 0 -12 87 -11 95 1 3 6 -1 10 -9 10 -12 0 -16
11 -16 50 0 58 18 67 47 23 10 -14 32 -41 50 -60 29 -31 34 -33 102 -33 68 0
94 12 51 23 -18 5 -20 13 -20 99 l1 93 27 -32 c15 -17 56 -65 92 -107 35 -42
68 -76 72 -76 4 0 8 55 8 121 0 104 3 124 18 135 15 12 11 13 -33 13 -44 0
-48 -1 -32 -13 13 -10 19 -34 24 -95 3 -46 2 -81 -3 -81 -10 0 -105 104 -144
158 -19 26 -31 32 -59 32 l-36 0 23 -18 c21 -17 23 -23 20 -122 -3 -101 -4
-105 -26 -108 -29 -4 -48 11 -83 67 l-28 44 24 19 c34 27 33 70 -1 97 -21 17
-41 21 -95 21 -38 0 -69 -4 -69 -9z m134 -27 c35 -34 9 -94 -40 -94 -22 0 -24
3 -24 55 0 52 2 55 24 55 14 0 32 -7 40 -16z"/>
<path d="M4694 2303 c-32 -98 -80 -211 -95 -225 -27 -23 -24 -28 21 -28 22 0
40 5 40 10 0 6 -5 10 -11 10 -14 0 -5 56 12 77 6 7 27 13 45 13 35 0 39 -4 58
-67 6 -17 3 -23 -9 -23 -9 0 -13 -4 -10 -10 7 -12 95 -14 95 -2 0 4 -9 13 -19
19 -12 8 -33 54 -57 128 -37 111 -57 139 -70 98z m36 -110 c0 -8 -12 -13 -30
-13 -19 0 -28 4 -25 13 2 6 10 26 16 42 l11 30 14 -30 c7 -16 13 -36 14 -42z"/>
<path d="M420 1855 c0 -13 334 -15 2950 -15 2616 0 2950 2 2950 15 0 13 -334
15 -2950 15 -2616 0 -2950 -2 -2950 -15z"/>
<path d="M2841 1696 c-15 -9 -20 -16 -12 -20 7 -5 11 -49 11 -131 0 -108 -2
-125 -17 -134 -14 -8 -7 -10 31 -11 42 0 47 2 33 13 -14 10 -17 35 -19 154
l-3 141 -24 -12z"/>
<path d="M3527 1699 c-22 -13 -47 -68 -47 -103 0 -13 -6 -27 -12 -30 -10 -5
-10 -7 0 -12 8 -4 12 -28 12 -69 0 -50 -4 -66 -17 -74 -14 -8 -5 -10 37 -10
43 0 50 2 33 9 -21 8 -23 16 -23 75 l0 65 30 0 c17 0 30 5 30 10 0 6 -13 10
-30 10 -34 0 -38 16 -19 83 10 39 26 45 59 25 22 -14 35 -6 27 17 -7 17 -53
20 -80 4z"/>
<path d="M1523 1679 c15 -9 17 -26 17 -134 0 -108 -2 -125 -17 -134 -14 -8 -3
-10 42 -10 50 0 56 2 38 11 -20 10 -23 19 -23 70 l0 58 80 0 80 0 0 -60 c0
-46 -4 -61 -17 -69 -14 -8 -3 -10 42 -10 50 0 56 2 38 11 -22 11 -23 16 -23
135 0 119 1 124 23 133 17 7 8 9 -38 9 -45 0 -56 -2 -42 -10 13 -8 17 -23 17
-64 l0 -55 -80 0 -80 0 0 55 c0 48 3 57 23 65 17 7 8 9 -38 9 -45 0 -56 -2
-42 -10z"/>
<path d="M4333 1679 c15 -9 17 -26 17 -134 0 -108 -2 -125 -17 -134 -14 -8 -3
-10 42 -10 50 0 56 2 38 11 -20 10 -23 19 -23 70 l0 58 80 0 80 0 0 -60 c0
-46 -4 -61 -17 -69 -14 -8 -3 -10 42 -10 50 0 56 2 38 11 -22 11 -23 16 -23
135 0 119 1 124 23 133 17 7 8 9 -38 9 -45 0 -56 -2 -42 -10 13 -8 17 -23 17
-64 l0 -55 -80 0 -80 0 0 55 c0 48 3 57 23 65 17 7 8 9 -38 9 -45 0 -56 -2
-42 -10z"/>
<path d="M2431 1657 c-14 -17 3 -41 23 -34 9 4 16 13 16 21 0 19 -26 28 -39
13z"/>
<path d="M2951 1657 c-14 -17 3 -41 23 -34 9 4 16 13 16 21 0 19 -26 28 -39
13z"/>
<path d="M2540 1578 c-16 -14 -21 -22 -12 -25 8 -3 12 -27 12 -73 0 -53 4 -69
16 -74 25 -10 51 -7 62 7 8 10 5 13 -16 12 -26 0 -27 2 -30 63 l-3 62 31 0
c16 0 30 5 30 10 0 6 -13 10 -29 10 -17 0 -31 6 -33 14 -2 12 -8 10 -28 -6z"/>
<path d="M3060 1578 c-16 -14 -21 -22 -12 -25 8 -3 12 -27 12 -73 0 -53 4 -69
16 -74 25 -10 51 -7 62 7 8 10 5 13 -16 12 -26 0 -27 2 -30 61 l-3 62 38 5
c21 2 41 1 45 -2 4 -4 19 -38 32 -77 21 -64 22 -74 10 -103 -8 -18 -23 -35
-34 -38 -24 -6 -23 -38 0 -38 9 0 38 48 75 123 33 68 69 130 79 138 18 13 16
14 -25 13 -24 0 -38 -3 -31 -6 6 -2 12 -10 12 -16 0 -18 -32 -97 -39 -97 -4 0
-14 22 -23 49 -11 35 -13 52 -5 60 8 8 -9 11 -60 11 -54 0 -72 4 -75 14 -2 12
-8 10 -28 -6z"/>
<path d="M5160 1578 c-16 -14 -21 -22 -12 -25 8 -3 12 -27 12 -73 0 -53 4 -69
16 -74 25 -10 51 -7 62 7 8 10 5 13 -16 12 -26 0 -27 2 -30 63 l-3 62 31 0
c16 0 30 5 30 10 0 6 -13 10 -29 10 -17 0 -31 6 -33 14 -2 12 -8 10 -28 -6z"/>
<path d="M2211 1566 c-15 -9 -20 -16 -12 -20 7 -5 11 -47 11 -121 0 -98 -2
-115 -17 -124 -14 -8 -7 -10 32 -10 39 0 46 2 33 10 -13 7 -18 23 -18 53 l0
43 42 6 c53 7 88 44 88 91 0 56 -64 95 -110 66 -10 -6 -17 -5 -20 5 -4 11 -9
11 -29 1z m103 -32 c20 -19 21 -88 2 -103 -8 -7 -27 -11 -43 -9 -26 3 -28 6
-31 57 -3 56 5 71 40 71 9 0 24 -7 32 -16z"/>
<path d="M2431 1568 c-19 -6 -22 -11 -13 -20 7 -7 12 -38 12 -70 0 -44 -4 -59
-17 -67 -14 -8 -7 -10 31 -11 42 0 47 2 33 13 -12 9 -17 31 -19 88 -3 76 -3
76 -27 67z"/>
<path d="M2951 1568 c-19 -6 -22 -11 -13 -20 7 -7 12 -38 12 -70 0 -44 -4 -59
-17 -67 -14 -8 -7 -10 31 -11 42 0 47 2 33 13 -12 9 -17 31 -19 88 -3 76 -3
76 -27 67z"/>
<path d="M1869 1541 c-17 -18 -29 -40 -29 -56 0 -16 12 -38 29 -56 40 -39 82
-39 122 0 37 38 38 79 3 115 -37 37 -86 35 -125 -3z m91 -1 c43 -43 13 -142
-38 -126 -22 7 -42 46 -42 81 0 25 31 65 50 65 6 0 19 -9 30 -20z"/>
<path d="M2067 1552 c-25 -27 -21 -38 23 -73 22 -18 40 -38 40 -45 0 -29 -62
-23 -73 8 -2 7 -7 10 -11 6 -4 -3 -3 -16 4 -27 24 -46 121 -12 105 38 -3 11
-22 30 -41 41 -36 23 -44 44 -18 54 21 8 20 8 39 -10 19 -19 28 -14 19 10 -9
22 -66 21 -87 -2z"/>
<path d="M2673 1546 c-15 -13 -24 -28 -20 -32 5 -5 16 2 26 15 23 30 55 25 59
-11 3 -23 -2 -28 -40 -40 -47 -16 -61 -45 -33 -68 13 -10 23 -11 44 -4 18 7
32 7 43 1 8 -6 24 -7 34 -3 18 7 18 8 2 17 -14 8 -18 23 -18 67 0 32 -5 63
-12 70 -19 19 -55 14 -85 -12z m67 -95 c0 -20 -32 -37 -50 -26 -14 9 -13 32 3
38 28 12 47 7 47 -12z"/>
<path d="M3599 1541 c-17 -18 -29 -40 -29 -56 0 -16 12 -38 29 -56 40 -39 82
-39 122 0 37 38 38 79 3 115 -37 37 -86 35 -125 -3z m91 -1 c43 -43 13 -142
-38 -126 -22 7 -42 46 -42 81 0 25 31 65 50 65 6 0 19 -9 30 -20z"/>
<path d="M3815 1564 c-7 -3 -9 -30 -7 -71 4 -56 2 -69 -14 -80 -16 -11 -11
-13 37 -12 43 0 49 2 31 9 -21 9 -23 15 -20 67 3 57 4 58 32 58 16 0 31 6 33
12 7 19 -25 27 -44 12 -13 -11 -17 -11 -20 -1 -5 12 -10 14 -28 6z"/>
<path d="M4063 1546 c-15 -13 -24 -28 -20 -32 5 -5 16 2 26 15 23 30 55 25 59
-11 3 -23 -2 -28 -40 -40 -47 -16 -61 -45 -33 -68 13 -10 23 -11 44 -4 18 7
32 7 43 1 8 -6 24 -7 34 -3 18 7 18 8 2 17 -14 8 -18 23 -18 67 0 32 -5 63
-12 70 -19 19 -55 14 -85 -12z m67 -95 c0 -20 -32 -37 -50 -26 -14 9 -13 32 3
38 28 12 47 7 47 -12z"/>
<path d="M4679 1541 c-37 -38 -39 -82 -4 -116 29 -30 73 -33 105 -7 22 18 22
18 -18 14 -45 -4 -82 22 -82 58 0 18 7 20 60 20 53 0 60 2 60 20 0 46 -78 54
-121 11z m80 6 c15 -19 4 -27 -36 -27 -36 0 -43 13 -15 29 23 14 38 13 51 -2z"/>
<path d="M4853 1546 c-15 -13 -24 -28 -20 -32 5 -5 16 2 26 15 23 30 55 25 59
-11 3 -23 -2 -28 -40 -40 -47 -16 -61 -45 -33 -68 13 -10 23 -11 44 -4 18 7
32 7 43 1 8 -6 24 -7 34 -3 18 7 18 8 2 17 -14 8 -18 23 -18 67 0 32 -5 63
-12 70 -19 19 -55 14 -85 -12z m67 -95 c0 -20 -32 -37 -50 -26 -14 9 -13 32 3
38 28 12 47 7 47 -12z"/>
<path d="M5025 1564 c-7 -3 -9 -30 -7 -71 4 -56 2 -69 -14 -80 -16 -11 -11
-13 37 -12 43 0 49 2 31 9 -21 9 -23 15 -20 67 3 57 4 58 32 58 16 0 31 6 33
12 7 19 -25 27 -44 12 -13 -11 -17 -11 -20 -1 -5 12 -10 14 -28 6z"/>
</g>
</svg>
